<?xml version="1.0" encoding="UTF-8" standalone="no"?>
<svg width="800" height="500" viewBox="0 0 800 500" fill="none" xmlns="http://www.w3.org/2000/svg">
  <!-- Background -->
  <rect width="800" height="500" rx="8" fill="#F5F7FA" />
  
  <!-- Header -->
  <rect x="20" y="20" width="760" height="60" rx="4" fill="#FFFFFF" stroke="#E0E0E0" stroke-width="1" />
  <rect x="40" y="35" width="200" height="30" rx="4" fill="#1A237E" opacity="0.1" />
  <text x="50" y="55" font-family="Inter, sans-serif" font-size="16" font-weight="600" fill="#1A237E">Activity Grid</text>
  
  <!-- Tabs -->
  <rect x="20" y="100" width="760" height="50" rx="4" fill="#FFFFFF" stroke="#E0E0E0" stroke-width="1" />
  <rect x="40" y="110" width="100" height="30" rx="4" fill="#1A237E" />
  <text x="65" y="130" font-family="Inter, sans-serif" font-size="14" fill="#FFFFFF">Month</text>
  
  <rect x="150" y="110" width="100" height="30" rx="4" fill="#F5F7FA" />
  <text x="180" y="130" font-family="Inter, sans-serif" font-size="14" fill="#1A237E">Week</text>
  
  <rect x="260" y="110" width="100" height="30" rx="4" fill="#F5F7FA" />
  <text x="295" y="130" font-family="Inter, sans-serif" font-size="14" fill="#1A237E">Day</text>
  
  <rect x="370" y="110" width="100" height="30" rx="4" fill="#F5F7FA" />
  <text x="405" y="130" font-family="Inter, sans-serif" font-size="14" fill="#1A237E">List</text>
  
  <rect x="480" y="110" width="100" height="30" rx="4" fill="#F5F7FA" />
  <text x="500" y="130" font-family="Inter, sans-serif" font-size="14" fill="#1A237E">Heat Map</text>
  
  <!-- Calendar Grid -->
  <rect x="20" y="170" width="760" height="310" rx="4" fill="#FFFFFF" stroke="#E0E0E0" stroke-width="1" />
  
  <!-- Calendar Header -->
  <rect x="40" y="190" width="720" height="30" rx="0" fill="#F5F7FA" />
  <text x="70" y="210" font-family="Inter, sans-serif" font-size="12" fill="#616161">Sun</text>
  <text x="170" y="210" font-family="Inter, sans-serif" font-size="12" fill="#616161">Mon</text>
  <text x="270" y="210" font-family="Inter, sans-serif" font-size="12" fill="#616161">Tue</text>
  <text x="370" y="210" font-family="Inter, sans-serif" font-size="12" fill="#616161">Wed</text>
  <text x="470" y="210" font-family="Inter, sans-serif" font-size="12" fill="#616161">Thu</text>
  <text x="570" y="210" font-family="Inter, sans-serif" font-size="12" fill="#616161">Fri</text>
  <text x="670" y="210" font-family="Inter, sans-serif" font-size="12" fill="#616161">Sat</text>
  
  <!-- Calendar Days -->
  <!-- Week 1 -->
  <rect x="40" y="230" width="100" height="80" rx="4" fill="#F5F7FA" />
  <text x="50" y="250" font-family="Inter, sans-serif" font-size="14" fill="#9E9E9E">1</text>
  
  <rect x="150" y="230" width="100" height="80" rx="4" fill="#FFFFFF" stroke="#E0E0E0" stroke-width="1" />
  <text x="160" y="250" font-family="Inter, sans-serif" font-size="14" fill="#212121">2</text>
  <rect x="160" y="260" width="80" height="20" rx="10" fill="#1A237E" />
  <text x="175" y="274" font-family="Inter, sans-serif" font-size="10" fill="#FFFFFF">Promotion</text>
  
  <rect x="260" y="230" width="100" height="80" rx="4" fill="#FFFFFF" stroke="#E0E0E0" stroke-width="1" />
  <text x="270" y="250" font-family="Inter, sans-serif" font-size="14" fill="#212121">3</text>
  
  <rect x="370" y="230" width="100" height="80" rx="4" fill="#FFFFFF" stroke="#E0E0E0" stroke-width="1" />
  <text x="380" y="250" font-family="Inter, sans-serif" font-size="14" fill="#212121">4</text>
  <rect x="380" y="260" width="80" height="20" rx="10" fill="#4CAF50" />
  <text x="390" y="274" font-family="Inter, sans-serif" font-size="10" fill="#FFFFFF">Trade Spend</text>
  
  <rect x="480" y="230" width="100" height="80" rx="4" fill="#FFFFFF" stroke="#E0E0E0" stroke-width="1" />
  <text x="490" y="250" font-family="Inter, sans-serif" font-size="14" fill="#212121">5</text>
  
  <rect x="590" y="230" width="100" height="80" rx="4" fill="#FFFFFF" stroke="#E0E0E0" stroke-width="1" />
  <text x="600" y="250" font-family="Inter, sans-serif" font-size="14" fill="#212121">6</text>
  
  <rect x="700" y="230" width="60" height="80" rx="4" fill="#F5F7FA" />
  <text x="710" y="250" font-family="Inter, sans-serif" font-size="14" fill="#9E9E9E">7</text>
  
  <!-- Week 2 -->
  <rect x="40" y="320" width="100" height="80" rx="4" fill="#F5F7FA" />
  <text x="50" y="340" font-family="Inter, sans-serif" font-size="14" fill="#9E9E9E">8</text>
  
  <rect x="150" y="320" width="100" height="80" rx="4" fill="#FFFFFF" stroke="#E0E0E0" stroke-width="1" />
  <text x="160" y="340" font-family="Inter, sans-serif" font-size="14" fill="#212121">9</text>
  
  <rect x="260" y="320" width="100" height="80" rx="4" fill="#FFFFFF" stroke="#E0E0E0" stroke-width="1" />
  <text x="270" y="340" font-family="Inter, sans-serif" font-size="14" fill="#212121">10</text>
  <rect x="270" y="350" width="80" height="20" rx="10" fill="#9C27B0" />
  <text x="290" y="364" font-family="Inter, sans-serif" font-size="10" fill="#FFFFFF">Campaign</text>
  
  <rect x="370" y="320" width="100" height="80" rx="4" fill="#FFFFFF" stroke="#E0E0E0" stroke-width="1" />
  <text x="380" y="340" font-family="Inter, sans-serif" font-size="14" fill="#212121">11</text>
  
  <rect x="480" y="320" width="100" height="80" rx="4" fill="#FFFFFF" stroke="#E0E0E0" stroke-width="1" />
  <text x="490" y="340" font-family="Inter, sans-serif" font-size="14" fill="#212121">12</text>
  <rect x="490" y="350" width="80" height="20" rx="10" fill="#F44336" />
  <text x="515" y="364" font-family="Inter, sans-serif" font-size="10" fill="#FFFFFF">Event</text>
  
  <rect x="590" y="320" width="100" height="80" rx="4" fill="#FFFFFF" stroke="#E0E0E0" stroke-width="1" />
  <text x="600" y="340" font-family="Inter, sans-serif" font-size="14" fill="#212121">13</text>
  
  <rect x="700" y="320" width="60" height="80" rx="4" fill="#F5F7FA" />
  <text x="710" y="340" font-family="Inter, sans-serif" font-size="14" fill="#9E9E9E">14</text>
  
  <!-- Week 3 (partial) -->
  <rect x="40" y="410" width="100" height="50" rx="4" fill="#F5F7FA" />
  <text x="50" y="430" font-family="Inter, sans-serif" font-size="14" fill="#9E9E9E">15</text>
  
  <rect x="150" y="410" width="100" height="50" rx="4" fill="#FFFFFF" stroke="#E0E0E0" stroke-width="1" />
  <text x="160" y="430" font-family="Inter, sans-serif" font-size="14" fill="#212121">16</text>
  <rect x="160" y="435" width="80" height="20" rx="10" fill="#FF9800" />
  <text x="180" y="449" font-family="Inter, sans-serif" font-size="10" fill="#FFFFFF">Training</text>
  
  <!-- Highlight Overlay -->
  <rect width="800" height="500" rx="8" fill="#1A237E" opacity="0.05" />
  
  <!-- Callout -->
  <circle cx="400" cy="250" r="100" stroke="#1A237E" stroke-width="3" stroke-dasharray="8 4" fill="none" />
  <path d="M480 180 L540 130" stroke="#1A237E" stroke-width="2" />
  <rect x="540" y="80" width="220" height="80" rx="8" fill="#FFFFFF" stroke="#1A237E" stroke-width="2" />
  <text x="550" y="105" font-family="Inter, sans-serif" font-size="14" font-weight="600" fill="#1A237E">Activity Grid</text>
  <text x="550" y="125" font-family="Inter, sans-serif" font-size="12" fill="#1A237E">Plan and visualize all your</text>
  <text x="550" y="145" font-family="Inter, sans-serif" font-size="12" fill="#1A237E">marketing activities in one place</text>
</svg>