<?xml version="1.0" encoding="UTF-8" standalone="no"?>
<svg width="800" height="500" viewBox="0 0 800 500" fill="none" xmlns="http://www.w3.org/2000/svg">
  <!-- Background -->
  <rect width="800" height="500" rx="8" fill="#F5F7FA" />
  
  <!-- Header -->
  <rect x="20" y="20" width="760" height="60" rx="4" fill="#FFFFFF" stroke="#E0E0E0" stroke-width="1" />
  <rect x="40" y="35" width="200" height="30" rx="4" fill="#1A237E" opacity="0.1" />
  <text x="50" y="55" font-family="Inter, sans-serif" font-size="16" font-weight="600" fill="#1A237E">South African Customers</text>
  
  <!-- Search and Filter Bar -->
  <rect x="20" y="100" width="760" height="60" rx="4" fill="#FFFFFF" stroke="#E0E0E0" stroke-width="1" />
  <rect x="40" y="115" width="300" height="30" rx="4" fill="#F5F7FA" stroke="#E0E0E0" stroke-width="1" />
  <text x="60" y="135" font-family="Inter, sans-serif" font-size="12" fill="#9E9E9E">Search customers...</text>
  
  <rect x="360" y="115" width="120" height="30" rx="4" fill="#F5F7FA" stroke="#E0E0E0" stroke-width="1" />
  <text x="380" y="135" font-family="Inter, sans-serif" font-size="12" fill="#9E9E9E">Filter</text>
  
  <rect x="500" y="115" width="120" height="30" rx="4" fill="#F5F7FA" stroke="#E0E0E0" stroke-width="1" />
  <text x="520" y="135" font-family="Inter, sans-serif" font-size="12" fill="#9E9E9E">Sort by</text>
  
  <rect x="640" y="115" width="120" height="30" rx="4" fill="#1A237E" />
  <text x="665" y="135" font-family="Inter, sans-serif" font-size="12" fill="#FFFFFF">Add Customer</text>
  
  <!-- Customer Cards -->
  <rect x="20" y="180" width="240" height="140" rx="8" fill="#FFFFFF" stroke="#E0E0E0" stroke-width="1" />
  <circle cx="50" cy="210" r="20" fill="#1A237E" opacity="0.1" />
  <rect x="80" y="200" width="160" height="20" rx="4" fill="#1A237E" opacity="0.1" />
  <rect x="80" y="230" width="120" height="10" rx="2" fill="#1A237E" opacity="0.1" />
  <rect x="40" y="260" width="200" height="40" rx="4" fill="#F5F7FA" />
  <rect x="50" y="275" width="80" height="10" rx="2" fill="#1A237E" opacity="0.1" />
  <rect x="150" y="275" width="80" height="10" rx="2" fill="#4CAF50" opacity="0.1" />
  
  <rect x="280" y="180" width="240" height="140" rx="8" fill="#FFFFFF" stroke="#E0E0E0" stroke-width="1" />
  <circle cx="310" cy="210" r="20" fill="#1A237E" opacity="0.1" />
  <rect x="340" y="200" width="160" height="20" rx="4" fill="#1A237E" opacity="0.1" />
  <rect x="340" y="230" width="120" height="10" rx="2" fill="#1A237E" opacity="0.1" />
  <rect x="300" y="260" width="200" height="40" rx="4" fill="#F5F7FA" />
  <rect x="310" y="275" width="80" height="10" rx="2" fill="#1A237E" opacity="0.1" />
  <rect x="410" y="275" width="80" height="10" rx="2" fill="#4CAF50" opacity="0.1" />
  
  <rect x="540" y="180" width="240" height="140" rx="8" fill="#FFFFFF" stroke="#E0E0E0" stroke-width="1" />
  <circle cx="570" cy="210" r="20" fill="#1A237E" opacity="0.1" />
  <rect x="600" y="200" width="160" height="20" rx="4" fill="#1A237E" opacity="0.1" />
  <rect x="600" y="230" width="120" height="10" rx="2" fill="#1A237E" opacity="0.1" />
  <rect x="560" y="260" width="200" height="40" rx="4" fill="#F5F7FA" />
  <rect x="570" y="275" width="80" height="10" rx="2" fill="#1A237E" opacity="0.1" />
  <rect x="670" y="275" width="80" height="10" rx="2" fill="#4CAF50" opacity="0.1" />
  
  <rect x="20" y="340" width="240" height="140" rx="8" fill="#FFFFFF" stroke="#E0E0E0" stroke-width="1" />
  <circle cx="50" cy="370" r="20" fill="#1A237E" opacity="0.1" />
  <rect x="80" y="360" width="160" height="20" rx="4" fill="#1A237E" opacity="0.1" />
  <rect x="80" y="390" width="120" height="10" rx="2" fill="#1A237E" opacity="0.1" />
  <rect x="40" y="420" width="200" height="40" rx="4" fill="#F5F7FA" />
  <rect x="50" y="435" width="80" height="10" rx="2" fill="#1A237E" opacity="0.1" />
  <rect x="150" y="435" width="80" height="10" rx="2" fill="#4CAF50" opacity="0.1" />
  
  <rect x="280" y="340" width="240" height="140" rx="8" fill="#FFFFFF" stroke="#E0E0E0" stroke-width="1" />
  <circle cx="310" cy="370" r="20" fill="#1A237E" opacity="0.1" />
  <rect x="340" y="360" width="160" height="20" rx="4" fill="#1A237E" opacity="0.1" />
  <rect x="340" y="390" width="120" height="10" rx="2" fill="#1A237E" opacity="0.1" />
  <rect x="300" y="420" width="200" height="40" rx="4" fill="#F5F7FA" />
  <rect x="310" y="435" width="80" height="10" rx="2" fill="#1A237E" opacity="0.1" />
  <rect x="410" y="435" width="80" height="10" rx="2" fill="#4CAF50" opacity="0.1" />
  
  <rect x="540" y="340" width="240" height="140" rx="8" fill="#FFFFFF" stroke="#E0E0E0" stroke-width="1" />
  <circle cx="570" cy="370" r="20" fill="#1A237E" opacity="0.1" />
  <rect x="600" y="360" width="160" height="20" rx="4" fill="#1A237E" opacity="0.1" />
  <rect x="600" y="390" width="120" height="10" rx="2" fill="#1A237E" opacity="0.1" />
  <rect x="560" y="420" width="200" height="40" rx="4" fill="#F5F7FA" />
  <rect x="570" y="435" width="80" height="10" rx="2" fill="#1A237E" opacity="0.1" />
  <rect x="670" y="435" width="80" height="10" rx="2" fill="#4CAF50" opacity="0.1" />
  
  <!-- South African Customer Names -->
  <text x="80" y="215" font-family="Inter, sans-serif" font-size="14" font-weight="600" fill="#1A237E">Shoprite Holdings</text>
  <text x="340" y="215" font-family="Inter, sans-serif" font-size="14" font-weight="600" fill="#1A237E">Pick n Pay</text>
  <text x="600" y="215" font-family="Inter, sans-serif" font-size="14" font-weight="600" fill="#1A237E">SPAR Group</text>
  <text x="80" y="375" font-family="Inter, sans-serif" font-size="14" font-weight="600" fill="#1A237E">Woolworths</text>
  <text x="340" y="375" font-family="Inter, sans-serif" font-size="14" font-weight="600" fill="#1A237E">Diplomat South Africa</text>
  <text x="600" y="375" font-family="Inter, sans-serif" font-size="14" font-weight="600" fill="#1A237E">Massmart</text>
  
  <!-- Highlight Overlay -->
  <rect width="800" height="500" rx="8" fill="#1A237E" opacity="0.05" />
  
  <!-- Callout -->
  <circle cx="400" cy="250" r="100" stroke="#1A237E" stroke-width="3" stroke-dasharray="8 4" fill="none" />
  <path d="M480 180 L540 130" stroke="#1A237E" stroke-width="2" />
  <rect x="540" y="80" width="220" height="80" rx="8" fill="#FFFFFF" stroke="#1A237E" stroke-width="2" />
  <text x="550" y="105" font-family="Inter, sans-serif" font-size="14" font-weight="600" fill="#1A237E">South African Customers</text>
  <text x="550" y="125" font-family="Inter, sans-serif" font-size="12" fill="#1A237E">View and manage all your</text>
  <text x="550" y="145" font-family="Inter, sans-serif" font-size="12" fill="#1A237E">South African retail partners</text>
</svg>