<?xml version="1.0" encoding="UTF-8" standalone="no"?>
<svg width="800" height="500" viewBox="0 0 800 500" fill="none" xmlns="http://www.w3.org/2000/svg">
  <!-- Background -->
  <rect width="800" height="500" rx="8" fill="#F5F7FA" />
  
  <!-- Dashboard Header -->
  <rect x="20" y="20" width="760" height="60" rx="4" fill="#FFFFFF" stroke="#E0E0E0" stroke-width="1" />
  <rect x="40" y="35" width="200" height="30" rx="4" fill="#1A237E" opacity="0.1" />
  <text x="50" y="55" font-family="Inter, sans-serif" font-size="16" font-weight="600" fill="#1A237E">Dashboard Overview</text>
  
  <!-- KPI Cards -->
  <rect x="20" y="100" width="180" height="120" rx="8" fill="#FFFFFF" stroke="#E0E0E0" stroke-width="1" />
  <rect x="40" y="120" width="140" height="20" rx="4" fill="#1A237E" opacity="0.1" />
  <rect x="40" y="160" width="80" height="40" rx="4" fill="#1A237E" opacity="0.1" />
  
  <rect x="220" y="100" width="180" height="120" rx="8" fill="#FFFFFF" stroke="#E0E0E0" stroke-width="1" />
  <rect x="240" y="120" width="140" height="20" rx="4" fill="#4CAF50" opacity="0.1" />
  <rect x="240" y="160" width="80" height="40" rx="4" fill="#4CAF50" opacity="0.1" />
  
  <rect x="420" y="100" width="180" height="120" rx="8" fill="#FFFFFF" stroke="#E0E0E0" stroke-width="1" />
  <rect x="440" y="120" width="140" height="20" rx="4" fill="#F44336" opacity="0.1" />
  <rect x="440" y="160" width="80" height="40" rx="4" fill="#F44336" opacity="0.1" />
  
  <rect x="620" y="100" width="160" height="120" rx="8" fill="#FFFFFF" stroke="#E0E0E0" stroke-width="1" />
  <rect x="640" y="120" width="120" height="20" rx="4" fill="#FFC107" opacity="0.1" />
  <rect x="640" y="160" width="80" height="40" rx="4" fill="#FFC107" opacity="0.1" />
  
  <!-- Charts -->
  <rect x="20" y="240" width="480" height="240" rx="8" fill="#FFFFFF" stroke="#E0E0E0" stroke-width="1" />
  <rect x="40" y="260" width="200" height="20" rx="4" fill="#1A237E" opacity="0.1" />
  
  <!-- Chart Lines -->
  <path d="M40 400 L480 400" stroke="#E0E0E0" stroke-width="1" />
  <path d="M40 350 L480 350" stroke="#E0E0E0" stroke-width="1" />
  <path d="M40 300 L480 300" stroke="#E0E0E0" stroke-width="1" />
  
  <!-- Chart Bars -->
  <rect x="80" y="320" width="30" height="80" rx="4" fill="#1A237E" opacity="0.7" />
  <rect x="130" y="300" width="30" height="100" rx="4" fill="#1A237E" opacity="0.7" />
  <rect x="180" y="350" width="30" height="50" rx="4" fill="#1A237E" opacity="0.7" />
  <rect x="230" y="280" width="30" height="120" rx="4" fill="#1A237E" opacity="0.7" />
  <rect x="280" y="330" width="30" height="70" rx="4" fill="#1A237E" opacity="0.7" />
  <rect x="330" y="310" width="30" height="90" rx="4" fill="#1A237E" opacity="0.7" />
  <rect x="380" y="270" width="30" height="130" rx="4" fill="#1A237E" opacity="0.7" />
  <rect x="430" y="320" width="30" height="80" rx="4" fill="#1A237E" opacity="0.7" />
  
  <!-- Activity Feed -->
  <rect x="520" y="240" width="260" height="240" rx="8" fill="#FFFFFF" stroke="#E0E0E0" stroke-width="1" />
  <rect x="540" y="260" width="160" height="20" rx="4" fill="#1A237E" opacity="0.1" />
  
  <!-- Activity Items -->
  <rect x="540" y="300" width="220" height="40" rx="4" fill="#F5F7FA" />
  <rect x="550" y="310" width="20" height="20" rx="10" fill="#4CAF50" opacity="0.7" />
  <rect x="580" y="310" width="160" height="10" rx="2" fill="#1A237E" opacity="0.1" />
  <rect x="580" y="325" width="100" height="8" rx="2" fill="#1A237E" opacity="0.1" />
  
  <rect x="540" y="350" width="220" height="40" rx="4" fill="#F5F7FA" />
  <rect x="550" y="360" width="20" height="20" rx="10" fill="#F44336" opacity="0.7" />
  <rect x="580" y="360" width="160" height="10" rx="2" fill="#1A237E" opacity="0.1" />
  <rect x="580" y="375" width="100" height="8" rx="2" fill="#1A237E" opacity="0.1" />
  
  <rect x="540" y="400" width="220" height="40" rx="4" fill="#F5F7FA" />
  <rect x="550" y="410" width="20" height="20" rx="10" fill="#FFC107" opacity="0.7" />
  <rect x="580" y="410" width="160" height="10" rx="2" fill="#1A237E" opacity="0.1" />
  <rect x="580" y="425" width="100" height="8" rx="2" fill="#1A237E" opacity="0.1" />
  
  <!-- Highlight Overlay -->
  <rect width="800" height="500" rx="8" fill="#1A237E" opacity="0.05" />
  
  <!-- Callout -->
  <circle cx="400" cy="250" r="80" stroke="#1A237E" stroke-width="3" stroke-dasharray="8 4" fill="none" />
  <path d="M460 200 L520 150" stroke="#1A237E" stroke-width="2" />
  <rect x="520" y="120" width="200" height="60" rx="8" fill="#FFFFFF" stroke="#1A237E" stroke-width="2" />
  <text x="530" y="145" font-family="Inter, sans-serif" font-size="14" font-weight="600" fill="#1A237E">Dashboard Overview</text>
  <text x="530" y="165" font-family="Inter, sans-serif" font-size="12" fill="#1A237E">Key metrics at a glance</text>
</svg>