<?xml version="1.0" encoding="UTF-8" standalone="no"?>
<svg width="800" height="500" viewBox="0 0 800 500" fill="none" xmlns="http://www.w3.org/2000/svg">
  <!-- Background -->
  <rect width="800" height="500" rx="8" fill="#F5F7FA" />
  
  <!-- Header -->
  <rect x="20" y="20" width="760" height="60" rx="4" fill="#FFFFFF" stroke="#E0E0E0" stroke-width="1" />
  <rect x="40" y="35" width="200" height="30" rx="4" fill="#1A237E" opacity="0.1" />
  <text x="50" y="55" font-family="Inter, sans-serif" font-size="16" font-weight="600" fill="#1A237E">South African Products</text>
  
  <!-- Search and Filter Bar -->
  <rect x="20" y="100" width="760" height="60" rx="4" fill="#FFFFFF" stroke="#E0E0E0" stroke-width="1" />
  <rect x="40" y="115" width="300" height="30" rx="4" fill="#F5F7FA" stroke="#E0E0E0" stroke-width="1" />
  <text x="60" y="135" font-family="Inter, sans-serif" font-size="12" fill="#9E9E9E">Search products...</text>
  
  <rect x="360" y="115" width="120" height="30" rx="4" fill="#F5F7FA" stroke="#E0E0E0" stroke-width="1" />
  <text x="380" y="135" font-family="Inter, sans-serif" font-size="12" fill="#9E9E9E">Category</text>
  
  <rect x="500" y="115" width="120" height="30" rx="4" fill="#F5F7FA" stroke="#E0E0E0" stroke-width="1" />
  <text x="520" y="135" font-family="Inter, sans-serif" font-size="12" fill="#9E9E9E">Sort by</text>
  
  <rect x="640" y="115" width="120" height="30" rx="4" fill="#1A237E" />
  <text x="665" y="135" font-family="Inter, sans-serif" font-size="12" fill="#FFFFFF">Add Product</text>
  
  <!-- Product Cards -->
  <rect x="20" y="180" width="240" height="140" rx="8" fill="#FFFFFF" stroke="#E0E0E0" stroke-width="1" />
  <rect x="40" y="200" width="60" height="60" rx="4" fill="#1A237E" opacity="0.1" />
  <rect x="110" y="200" width="130" height="20" rx="4" fill="#1A237E" opacity="0.1" />
  <rect x="110" y="230" width="80" height="10" rx="2" fill="#1A237E" opacity="0.1" />
  <rect x="40" y="280" width="200" height="20" rx="4" fill="#F5F7FA" />
  <rect x="50" y="285" width="80" height="10" rx="2" fill="#1A237E" opacity="0.1" />
  <rect x="150" y="285" width="80" height="10" rx="2" fill="#4CAF50" opacity="0.1" />
  
  <rect x="280" y="180" width="240" height="140" rx="8" fill="#FFFFFF" stroke="#E0E0E0" stroke-width="1" />
  <rect x="300" y="200" width="60" height="60" rx="4" fill="#1A237E" opacity="0.1" />
  <rect x="370" y="200" width="130" height="20" rx="4" fill="#1A237E" opacity="0.1" />
  <rect x="370" y="230" width="80" height="10" rx="2" fill="#1A237E" opacity="0.1" />
  <rect x="300" y="280" width="200" height="20" rx="4" fill="#F5F7FA" />
  <rect x="310" y="285" width="80" height="10" rx="2" fill="#1A237E" opacity="0.1" />
  <rect x="410" y="285" width="80" height="10" rx="2" fill="#4CAF50" opacity="0.1" />
  
  <rect x="540" y="180" width="240" height="140" rx="8" fill="#FFFFFF" stroke="#E0E0E0" stroke-width="1" />
  <rect x="560" y="200" width="60" height="60" rx="4" fill="#1A237E" opacity="0.1" />
  <rect x="630" y="200" width="130" height="20" rx="4" fill="#1A237E" opacity="0.1" />
  <rect x="630" y="230" width="80" height="10" rx="2" fill="#1A237E" opacity="0.1" />
  <rect x="560" y="280" width="200" height="20" rx="4" fill="#F5F7FA" />
  <rect x="570" y="285" width="80" height="10" rx="2" fill="#1A237E" opacity="0.1" />
  <rect x="670" y="285" width="80" height="10" rx="2" fill="#4CAF50" opacity="0.1" />
  
  <rect x="20" y="340" width="240" height="140" rx="8" fill="#FFFFFF" stroke="#E0E0E0" stroke-width="1" />
  <rect x="40" y="360" width="60" height="60" rx="4" fill="#1A237E" opacity="0.1" />
  <rect x="110" y="360" width="130" height="20" rx="4" fill="#1A237E" opacity="0.1" />
  <rect x="110" y="390" width="80" height="10" rx="2" fill="#1A237E" opacity="0.1" />
  <rect x="40" y="440" width="200" height="20" rx="4" fill="#F5F7FA" />
  <rect x="50" y="445" width="80" height="10" rx="2" fill="#1A237E" opacity="0.1" />
  <rect x="150" y="445" width="80" height="10" rx="2" fill="#4CAF50" opacity="0.1" />
  
  <rect x="280" y="340" width="240" height="140" rx="8" fill="#FFFFFF" stroke="#E0E0E0" stroke-width="1" />
  <rect x="300" y="360" width="60" height="60" rx="4" fill="#1A237E" opacity="0.1" />
  <rect x="370" y="360" width="130" height="20" rx="4" fill="#1A237E" opacity="0.1" />
  <rect x="370" y="390" width="80" height="10" rx="2" fill="#1A237E" opacity="0.1" />
  <rect x="300" y="440" width="200" height="20" rx="4" fill="#F5F7FA" />
  <rect x="310" y="445" width="80" height="10" rx="2" fill="#1A237E" opacity="0.1" />
  <rect x="410" y="445" width="80" height="10" rx="2" fill="#4CAF50" opacity="0.1" />
  
  <rect x="540" y="340" width="240" height="140" rx="8" fill="#FFFFFF" stroke="#E0E0E0" stroke-width="1" />
  <rect x="560" y="360" width="60" height="60" rx="4" fill="#1A237E" opacity="0.1" />
  <rect x="630" y="360" width="130" height="20" rx="4" fill="#1A237E" opacity="0.1" />
  <rect x="630" y="390" width="80" height="10" rx="2" fill="#1A237E" opacity="0.1" />
  <rect x="560" y="440" width="200" height="20" rx="4" fill="#F5F7FA" />
  <rect x="570" y="445" width="80" height="10" rx="2" fill="#1A237E" opacity="0.1" />
  <rect x="670" y="445" width="80" height="10" rx="2" fill="#4CAF50" opacity="0.1" />
  
  <!-- South African Product Names -->
  <text x="110" y="215" font-family="Inter, sans-serif" font-size="14" font-weight="600" fill="#1A237E">Biltong</text>
  <text x="370" y="215" font-family="Inter, sans-serif" font-size="14" font-weight="600" fill="#1A237E">Rooibos Tea</text>
  <text x="630" y="215" font-family="Inter, sans-serif" font-size="14" font-weight="600" fill="#1A237E">Amarula</text>
  <text x="110" y="375" font-family="Inter, sans-serif" font-size="14" font-weight="600" fill="#1A237E">Ouma Rusks</text>
  <text x="370" y="375" font-family="Inter, sans-serif" font-size="14" font-weight="600" fill="#1A237E">Mrs Balls Chutney</text>
  <text x="630" y="375" font-family="Inter, sans-serif" font-size="14" font-weight="600" fill="#1A237E">Cape Malay Curry</text>
  
  <!-- Price Tags -->
  <text x="50" y="295" font-family="Inter, sans-serif" font-size="12" fill="#1A237E">R89.99</text>
  <text x="310" y="295" font-family="Inter, sans-serif" font-size="12" fill="#1A237E">R45.99</text>
  <text x="570" y="295" font-family="Inter, sans-serif" font-size="12" fill="#1A237E">R249.99</text>
  <text x="50" y="455" font-family="Inter, sans-serif" font-size="12" fill="#1A237E">R39.99</text>
  <text x="310" y="455" font-family="Inter, sans-serif" font-size="12" fill="#1A237E">R32.99</text>
  <text x="570" y="455" font-family="Inter, sans-serif" font-size="12" fill="#1A237E">R29.99</text>
  
  <!-- Highlight Overlay -->
  <rect width="800" height="500" rx="8" fill="#1A237E" opacity="0.05" />
  
  <!-- Callout -->
  <circle cx="150" cy="250" r="80" stroke="#1A237E" stroke-width="3" stroke-dasharray="8 4" fill="none" />
  <path d="M210 200 L270 150" stroke="#1A237E" stroke-width="2" />
  <rect x="270" y="100" width="220" height="80" rx="8" fill="#FFFFFF" stroke="#1A237E" stroke-width="2" />
  <text x="280" y="125" font-family="Inter, sans-serif" font-size="14" font-weight="600" fill="#1A237E">South African Products</text>
  <text x="280" y="145" font-family="Inter, sans-serif" font-size="12" fill="#1A237E">View and manage your</text>
  <text x="280" y="165" font-family="Inter, sans-serif" font-size="12" fill="#1A237E">South African product catalog</text>
</svg>